<svg xmlns="http://www.w3.org/2000/svg" xmlns:xlink="http://www.w3.org/1999/xlink" width="97" height="79" viewBox="0 0 97 79"><defs><path id="al3na" d="M1258.47 45.63c-5.39 10.88-14.32 20.23-26.78 28.05-12.44 7.8-24.76 11.8-36.96 11.96-12.17.2-20.64-3.47-25.41-11.02-4.74-7.51-4.4-16.72 1.02-27.6 5.44-10.87 14.38-20.2 26.82-28 12.47-7.83 24.78-11.83 36.92-12.01 12.2-.17 20.67 3.5 25.41 11.02 4.77 7.54 4.43 16.74-1.02 27.6"/><path id="al3nb" d="M1249.6 16.14a16.26 16.26 0 0 1 5.97 12.06v3.04c-.03.92-.16 1.97-.4 3.15l-.15.04v-.08c.2-2.02 0-3.98-.64-5.87a13.16 13.16 0 0 0-3.12-5.09 18.55 18.55 0 0 0-9.45-4.93 43.66 43.66 0 0 0-19.34.48c-1.6.37-3.34.82-5.18 1.38l-2.18.7a77.47 77.47 0 0 0-30.4 19.05l-.64-.08a79.4 79.4 0 0 1 31.04-23.77l1.7-.71c6.49-2.76 13.35-4 20.57-3.7 4.53.2 8.6 1.65 12.22 4.33"/><path id="al3nc" d="M1183.12 47.93h3.27l.04 13.72h29.97l-2.26 3.41h-31.02z"/><path id="al3nd" d="M1237.67 27.94l2.5 2.31-19.88 34.81h-3.89z"/><path id="al3ne" d="M1193.31 47.75c.32 0 .6.07.83.23.32.2.55.46.68.78l.24.46c.21.7.33 1.42.36 2.14l.04 2.57-.04.2c-.06.12-.11.2-.16.23-.03.08-.12.11-.28.11h-3.18a.96.96 0 0 1-.56-.2c-.2-.2-.34-.38-.4-.54a6.31 6.31 0 0 1-.47-2.02 6.3 6.3 0 0 1 .16-2.64l.2-.55c.08-.2.2-.39.35-.54.19-.13.38-.2.56-.2h1.27zm-5.29-8.84c-.08.32-.11.61-.11.9-.08 1.3-.03 2.54.15 3.73v.12c.14 1.09.34 2.1.6 3.03l.36.82.2.2.24.07v.04l.04.04v.04l-.32 1.71a8.2 8.2 0 0 0 .04 2.14l.99 7.31.2.63c.03.1.1.18.2.23.02.05.1.08.24.08h5.76l.12-.12.08-.27c.08-.26.12-.53.12-.82v-.08c0-1.09-.03-1.9-.08-2.45l-.28-5.29a56.98 56.98 0 0 0-.4-4.78c-.1-1.06-.33-2.17-.67-3.3-.16-.53-.3-.9-.44-1.14a3.4 3.4 0 0 0-.72-.97 1.25 1.25 0 0 0-.91-.35l-3.5.04-.4-.04-.2-.2c-.07-.07-.11-.14-.11-.19a1.94 1.94 0 0 1-.2-.62l-.12-.7-.04-.12-.12-.15-.16-.04h-.12c-.13.08-.21.14-.24.2z"/><path id="al3nf" d="M1226.37 36.79h-3.18l2.19-3.74a7.02 7.02 0 0 0 3.41-1.05l.08-.04c.48-.28.94-.65 1.4-1.09.63-.7 1.17-1.36 1.62-1.98h3.14l-10.73 18.75h-4.09z"/><path id="al3ng" d="M1236.48 45.09l.04-.04a7.9 7.9 0 0 1 5.09-1.87c.66-.05 1.3.07 1.9.35.27.13.53.35.8.66l.2.51c.13.47.15.92.08 1.36l-.08.35c-.11.75-.4 1.5-.88 2.26l-.04.07a11.37 11.37 0 0 1-2.98 3.43c-.85.65-1.81 1.27-2.9 1.86l-.04.04-4.53 2.5h5.96l-2.34 4.16h-10.85c.53-.94 1.02-1.69 1.47-2.26.66-.73 1.26-1.32 1.79-1.79.71-.6 1.56-1.25 2.54-1.94l3.62-2.22c.95-.55 1.94-1.2 2.98-1.95l.16-.15c.53-.42.92-.9 1.19-1.44.21-.36.34-.65.4-.86a.96.96 0 0 0 0-.54c-.06-.2-.16-.35-.32-.43a.74.74 0 0 0-.48-.16h-.04l-.71.16-.64.31c-.5.34-.94.75-1.31 1.25-.32.39-.68.93-1.07 1.63h-3.42a16.88 16.88 0 0 1 4.4-5.25"/><path id="al3nh" d="M1200.44 40.47h.68c.29 0 .51.12.67.35.16.2.25.4.28.58.16.55.23 1.07.2 1.56l.64 11.94c0 1.56-.08 3.11-.24 4.67l-.12.47-.16.07h-3.3c-.08.03-.16 0-.24-.07l-.08-.16.28-4.63.08-.39.08-.15.16-.12 1.9-.04.24-.11.12-.28-.08-2.37c0-.88-.1-1.8-.31-2.76l-.08-.2a1.8 1.8 0 0 0-.36-.66.7.7 0 0 0-.48-.3l-.2-.05h-.51a.78.78 0 0 1-.4-.11l-.24-.4-.2-.58c-.2-.98-.34-2.04-.4-3.19-.07-1.16-.05-2.4.09-3.73.05-.34.13-.64.23-.9l.16-.35c.1-.1.2-.15.28-.15h.08c.05 0 .13.03.24.08l.08.2.16 1.08c0 .13.04.27.12.43l.07.12.24.11z"/><path id="al3ni" d="M1204.52 38.86l.2-.3.23-.12h.08c.08-.06.15-.03.2.07l.08.12.04.78c0 .26.05.45.16.58l.04.04c.08.1.18.18.32.24l.32.03.47-.03c.24 0 .45.08.64.27.18.18.32.37.4.58l.11.35c.16.52.27 1.15.32 1.9v1.68a26 26 0 0 1-.51 4.98 7.67 7.67 0 0 1-1.2 2.68l-.27.31-.12.08-.12.04-.12-.04-.2-.16a2.05 2.05 0 0 1-.12-.66v-.15l.08-.24a.9.9 0 0 1 .12-.3l.04-.12c.26-.34.49-.82.67-1.44a4.6 4.6 0 0 0 .28-1.48c0-.44-.06-.83-.2-1.17l-.04-.04c-.02-.13-.12-.24-.27-.35a.66.66 0 0 0-.4-.11h-.72c-.1.05-.2.02-.31-.08l-.24-.27-.2-.55c-.16-.85-.24-1.71-.24-2.57v-.03c0-1.46.08-2.66.24-3.62z"/><path id="al3nj" d="M1211.78 38.53l.08.15.04.86c-.03.2 0 .41.08.62l.08.16c.07.07.14.11.2.11.07.06.2.08.35.08l5-.04c.22 0 .37.08.45.24l.15.35.08 1a33.9 33.9 0 0 1-.2 2.77l-.23 2.6-.32 1.29-.04.11c-.19.5-.33 1.08-.44 1.76l-.12 3.73c0 1.17-.04 2.33-.12 3.5-.08.65-.3 1.2-.67 1.67l-.52.59c-.1.1-.2.17-.28.2h-.16l-.11-.05-.09-.11v-.43l.16-.97.48-6.97c0-.7.13-1.48.4-2.33l.71-1.52-.07-.15v-.04l-4.1.04-.28.5-.23.66c-.24.8-.38 1.53-.4 2.18l-.04 6.73a2.69 2.69 0 0 1-.68 1.67c-.18.26-.37.47-.55.63l-.36.15h-.2l-.04-.08-.04-.2v-.19l.2-2.25v-.04c.1-.88.16-1.56.16-2.02l.16-3.74c0-.65.09-1.4.27-2.25.16-.6.43-1.18.8-1.75a.65.65 0 0 1-.52-.24 1.4 1.4 0 0 1-.28-.5l-.07-.31c-.14-.7-.2-1.59-.2-2.65l.04-.54c0-1.1.13-2.32.4-3.7.02-.28.13-.6.31-.93a.71.71 0 0 1 .24-.31l.32-.16c.1 0 .17.04.2.12"/><path id="al3nk" d="M1242.25 26.08c.13-.13.31-.2.55-.2.19 0 .37.07.56.2.13.18.2.38.2.58 0 .24-.08.4-.24.51-.1.16-.28.23-.52.23a.77.77 0 0 1-.55-.23c-.16-.1-.24-.27-.24-.5 0-.24.08-.43.24-.59zm.55-1.94c-.71-.03-1.33.2-1.87.7-.5.54-.75 1.15-.75 1.82 0 .73.26 1.33.8 1.8.47.46 1.08.7 1.82.7a2.5 2.5 0 0 0 1.83-.7c.5-.5.75-1.1.75-1.8 0-.67-.25-1.28-.75-1.82a2.28 2.28 0 0 0-1.83-.7z"/><path id="al3nl" d="M1196.65 63.68a4.99 4.99 0 0 1 0 7.15 5.21 5.21 0 0 1-7.27 0 5 5 0 0 1 0-7.15 5.21 5.21 0 0 1 7.27 0zm-3.65 1.9c-.48 0-.88.17-1.2.51-.34.31-.51.7-.51 1.17 0 .46.17.85.51 1.16.35.34.75.5 1.2.5.76.06 1.3-.29 1.62-1.04l.09-.62c0-.5-.16-.9-.48-1.21a1.69 1.69 0 0 0-1.23-.47z"/><path id="al3nm" d="M1174.88 59.94a13.04 13.04 0 0 0 5.2 11.67c3.1 2.23 6.6 3.58 10.5 4.04 7.6.88 15.02.12 22.25-2.29l2.19-.7a83.9 83.9 0 0 0 7.86-3.07c.21.39.52.77.92 1.16a5.12 5.12 0 0 0 2.78 1.44 80.16 80.16 0 0 1-11.56 6.15l-2.47 1a55.27 55.27 0 0 1-12.67 3.35c-5.14.86-10.22.46-15.22-1.2a15.71 15.71 0 0 1-7.87-5.64 15.46 15.46 0 0 1-3.18-9.03v-2.99c.16-2.28.54-4.4 1.15-6.34l.44-.04c-.16.96-.25 1.65-.28 2.06z"/><path id="al3nn" d="M1227.24 62.2c1.43 0 2.65.5 3.66 1.48a4.7 4.7 0 0 1 1.47 3.58 4.65 4.65 0 0 1-1.47 3.54c-1.01.98-2.23 1.49-3.66 1.51h-.04a5.16 5.16 0 0 1-3.62-1.51 4.54 4.54 0 0 1-1.47-3.54 4.85 4.85 0 0 1 1.47-3.58c1.01-.99 2.22-1.48 3.62-1.48zm-.04 3.38c-.48 0-.87.17-1.2.51-.34.31-.5.7-.47 1.17-.02.44.13.83.48 1.16.34.34.74.5 1.19.5h.04c.48 0 .89-.16 1.23-.5.32-.3.48-.7.48-1.16 0-.47-.16-.86-.48-1.17a1.7 1.7 0 0 0-1.23-.5z"/></defs><g><g transform="translate(-1166 -7)"><use fill="#fff" xlink:href="#al3na"/></g><g transform="translate(-1166 -7)"><use fill="#004fa1" xlink:href="#al3nb"/></g><g transform="translate(-1166 -7)"><use fill="#004fa1" xlink:href="#al3nc"/></g><g transform="translate(-1166 -7)"><use fill="#004fa1" xlink:href="#al3nd"/></g><g transform="translate(-1166 -7)"><use fill="#eb2025" xlink:href="#al3ne"/></g><g transform="translate(-1166 -7)"><use fill="#eb2025" xlink:href="#al3nf"/></g><g transform="translate(-1166 -7)"><use fill="#eb2025" xlink:href="#al3ng"/></g><g transform="translate(-1166 -7)"><use fill="#eb2025" xlink:href="#al3nh"/></g><g transform="translate(-1166 -7)"><use fill="#eb2025" xlink:href="#al3ni"/></g><g transform="translate(-1166 -7)"><use fill="#eb2025" xlink:href="#al3nj"/></g><g transform="translate(-1166 -7)"><use fill="#eb2025" xlink:href="#al3nk"/></g><g transform="translate(-1166 -7)"><use fill="#eb2025" xlink:href="#al3nl"/></g><g transform="translate(-1166 -7)"><use fill="#004fa1" xlink:href="#al3nm"/></g><g transform="translate(-1166 -7)"><use fill="#eb2025" xlink:href="#al3nn"/></g></g></svg>