<?xml version="1.0" encoding="UTF-8"?>
<svg width="28px" height="29px" viewBox="0 0 28 29" version="1.1" xmlns="http://www.w3.org/2000/svg" xmlns:xlink="http://www.w3.org/1999/xlink">
    <title>2DEE69CF-B922-4AF2-A530-137E3030E579</title>
    <g id="Page-1" stroke="none" stroke-width="1" fill="none" fill-rule="evenodd">
        <g id="מגירת-מוצר-טאבים-2-copy-4" transform="translate(-1025.000000, -410.000000)" fill-rule="nonzero">
            <g id="icons-/-new" transform="translate(1025.000000, 410.000000)">
                <g id="Group">
                    <path d="M27.9541735,13.0952381 C27.9541735,12.6666667 27.6792144,12.2857143 27.2667758,12.1904762 L24.700491,11.5238095 L26.6252046,9.61904762 C26.9001637,9.33333333 26.9918167,8.85714286 26.7626841,8.47619048 L25.3878887,6.04761905 C25.2045827,5.66666667 24.7463175,5.52380952 24.3797054,5.61904762 L21.8134206,6.38095238 L22.5466448,3.71428571 C22.6382979,3.28571429 22.5008183,2.85714286 22.1342062,2.66666667 L19.797054,1.23809524 C19.4304419,1.04761905 18.9721768,1.0952381 18.6972177,1.38095238 L16.8641571,3.38095238 L16.2225859,0.714285714 C16.1309329,0.285714286 15.7643208,0 15.3518822,0 L12.6022913,0 C12.1898527,0 11.8232406,0.285714286 11.7315876,0.714285714 L11.0900164,3.38095238 L9.25695581,1.38095238 C8.98199673,1.0952381 8.52373159,1 8.15711948,1.23809524 L5.81996727,2.66666667 C5.45335516,2.85714286 5.31587561,3.33333333 5.40752864,3.71428571 L6.14075286,6.38095238 L3.57446809,5.61904762 C3.16202946,5.52380952 2.74959083,5.66666667 2.56628478,6.04761905 L1.19148936,8.47619048 C1.00818331,8.85714286 1.05400982,9.33333333 1.3289689,9.61904762 L3.25368249,11.5238095 L0.687397709,12.1904762 C0.274959083,12.2857143 0,12.6666667 0,13.0952381 L0,15.9047619 C0,16.3333333 0.274959083,16.7142857 0.687397709,16.8095238 L3.25368249,17.4761905 L1.3289689,19.3809524 C1.05400982,19.6666667 0.962356792,20.1428571 1.19148936,20.5238095 L2.56628478,22.952381 C2.74959083,23.3333333 3.20785597,23.4761905 3.57446809,23.3809524 L6.14075286,22.6190476 L5.40752864,25.2857143 C5.31587561,25.7142857 5.45335516,26.1428571 5.81996727,26.3333333 L8.15711948,27.7619048 C8.52373159,27.952381 8.98199673,27.9047619 9.25695581,27.6190476 L11.0900164,25.6190476 L11.7315876,28.2857143 C11.8232406,28.7142857 12.1898527,29 12.6022913,29 L15.3518822,29 C15.7643208,29 16.1309329,28.7142857 16.2225859,28.2857143 L16.8641571,25.6190476 L18.6972177,27.6190476 C18.9721768,27.9047619 19.4304419,28 19.797054,27.7619048 L22.1342062,26.3333333 C22.5008183,26.1428571 22.6382979,25.6666667 22.5466448,25.2857143 L21.8134206,22.6190476 L24.3797054,23.3809524 C24.792144,23.4761905 25.2045827,23.3333333 25.3878887,22.952381 L26.7626841,20.5238095 C26.9459902,20.1428571 26.9001637,19.6666667 26.6252046,19.3809524 L24.700491,17.4761905 L27.2667758,16.8095238 C27.6792144,16.7142857 27.9541735,16.3333333 27.9541735,15.9047619 L27.9541735,13.0952381 Z" id="Path" fill="#FF7300"></path>
                    <path d="M6.14075286,6.38095238 L6.14075286,6.38095238 L21.8592471,22.7142857 L21.8592471,22.7142857 L24.4255319,23.4761905 C24.8379705,23.5714286 25.2504092,23.4285714 25.4337152,23.047619 L26.8085106,20.6190476 C26.9918167,20.2380952 26.9459902,19.7619048 26.6710311,19.4761905 L24.7463175,17.5714286 L27.3126023,16.9047619 C27.7250409,16.8095238 28,16.4285714 28,16 L28,13.1904762 C28,12.7619048 27.7250409,12.3809524 27.3126023,12.2857143 L24.7463175,11.6190476 L26.6710311,9.71428571 C26.9459902,9.42857143 27.0376432,8.95238095 26.8085106,8.57142857 L25.4337152,6.14285714 C25.2504092,5.76190476 24.792144,5.61904762 24.4255319,5.71428571 L21.8592471,6.47619048 L22.5924714,3.80952381 C22.6841244,3.38095238 22.5466448,2.95238095 22.1800327,2.76190476 L19.8428805,1.33333333 C19.4762684,1.14285714 19.0180033,1.19047619 18.7430442,1.47619048 L16.9099836,3.47619048 L16.2225859,0.714285714 C16.1309329,0.285714286 15.7643208,0 15.3518822,0 L12.6022913,0 C12.1898527,0 11.8232406,0.285714286 11.7315876,0.714285714 L11.0900164,3.38095238 L9.25695581,1.38095238 C8.98199673,1.0952381 8.52373159,1 8.15711948,1.23809524 L5.81996727,2.66666667 C5.45335516,2.85714286 5.31587561,3.33333333 5.40752864,3.71428571 L6.14075286,6.38095238 Z" id="Path" fill="#FF3C00"></path>
                    <path d="M10.3109656,17.5714286 L7.2405892,11.952381 L6.23240589,18.0952381 L16.1767594,28.4285714 C16.1767594,28.3809524 16.1767594,28.3809524 16.2225859,28.3333333 L16.8641571,25.6666667 L18.6972177,27.6666667 C18.9721768,27.952381 19.4304419,28.047619 19.797054,27.8095238 L22.1342062,26.3809524 C22.5008183,26.1904762 22.6382979,25.7142857 22.5466448,25.3333333 L21.8134206,22.6666667 L24.3797054,23.4285714 C24.7463175,23.5238095 25.1587561,23.3809524 25.3878887,23 L12.8772504,11.7619048 L10.3109656,17.5714286 Z" id="Path" fill="#FF3C00"></path>
                </g>
                <path d="M19.1512806,18.1853785 L19.1512806,12.9723533 C19.4636716,12.9495748 19.7321326,12.9381855 19.9566637,12.9381855 C20.7831983,12.9381855 21.1964655,13.314031 21.1964655,14.0657219 L21.1964655,14.0657219 L21.1964655,18.1853785 L22.6900851,18.1853785 L22.6900851,14.070603 C22.6900851,13.8135312 22.6786959,13.5914407 22.6559173,13.4043315 C22.6331388,13.2172223 22.5892088,13.0325537 22.5241274,12.8503256 C22.4590459,12.6680975 22.3671184,12.5159696 22.2483447,12.3939418 C22.129571,12.2719141 21.9774431,12.1637161 21.7919609,12.069348 C21.6064788,11.9749799 21.3770666,11.9050173 21.1037245,11.8594603 C20.8303823,11.8139033 20.4919587,11.7911248 20.0884537,11.7911248 C19.6849486,11.7911248 19.238327,11.8130898 18.748589,11.8570197 C18.258851,11.9009497 17.8952084,11.9489473 17.657661,12.0010125 L17.657661,12.0010125 L17.657661,18.1853785 L19.1512806,18.1853785 Z M16.0188848,18.1853785 L16.0188848,14.2756096 C16.0188848,14.0087756 16.0497985,13.7923797 16.1116259,13.626422 C16.1734533,13.4604643 16.2857188,13.3172851 16.4484224,13.1968844 C16.5981098,13.0960081 16.741289,13.0195374 16.8779601,12.9674722 L16.8779601,12.9674722 L16.8779601,11.888747 L11.845536,11.888747 L11.845536,13.0260455 L15.2671939,13.0260455 L15.2671939,13.0602133 L15.1890961,13.0894999 C15.0686954,13.135057 14.9352784,13.2424414 14.7888451,13.4116532 C14.7172555,13.493005 14.6562417,13.6068976 14.6058035,13.7533309 C14.5553654,13.8997642 14.5301463,14.0624678 14.5301463,14.2414418 L14.5301463,14.2414418 L14.5301463,18.1853785 L16.0188848,18.1853785 Z M7.91263821,18.1853785 C9.4876096,18.1853785 10.4979993,17.4743635 10.9438073,16.0523335 C11.0576999,15.6943855 11.1406788,15.2192908 11.1927439,14.6270495 L11.1927439,14.6270495 L11.4270372,11.888747 L10.0017532,11.888747 L9.76745989,14.6660984 C9.7056325,15.408027 9.52828552,15.9905061 9.23541894,16.4135356 C8.94255236,16.8365651 8.52440396,17.0480799 7.98097375,17.0480799 L7.98097375,17.0480799 L6.38973199,17.0480799 L6.30675312,16.0523335 C6.42389976,16.0588417 6.51664084,16.0620957 6.58497638,16.0620957 C7.81827009,16.0620957 8.48535508,15.4226704 8.58623135,14.1438196 L8.58623135,14.1438196 L8.76683241,11.888747 L7.3513106,11.888747 L7.16582843,14.158463 C7.13979584,14.4773621 7.06413864,14.7051473 6.93885683,14.8418183 C6.81357501,14.9784894 6.62239822,15.0468249 6.36532644,15.0468249 C6.30675312,15.0468249 6.25794203,15.0451979 6.21889315,15.0419438 L6.21889315,15.0419438 L5.95531323,11.888747 L4.5300292,11.888747 L5.06207015,18.1853785 L7.91263821,18.1853785 Z" id="חדש" fill="#FFFFFF"></path>
            </g>
        </g>
    </g>
</svg>