<?xml version="1.0" encoding="UTF-8"?>
<svg width="26px" height="26px" viewBox="0 0 26 26" version="1.1" xmlns="http://www.w3.org/2000/svg" xmlns:xlink="http://www.w3.org/1999/xlink">
    <title>0D5C145B-0C4F-4B9E-B79C-1C4E32CFB514</title>
    <g id="Page-1" stroke="none" stroke-width="1" fill="none" fill-rule="evenodd">
        <g id="מגירת-מוצר-טאבים-2-copy-4" transform="translate(-1233.000000, -366.000000)" fill-rule="nonzero">
            <g id="icons-/-new-copy" transform="translate(1233.000000, 366.000000)">
                <g id="Group">
                    <path d="M25.0623624,11.7405583 C25.0623624,11.3563218 24.8158474,11.0147783 24.4460748,10.9293924 L22.1452678,10.3316913 L23.8708731,8.62397373 C24.1173881,8.36781609 24.1995598,7.9408867 23.9941306,7.59934319 L22.7615554,5.42200328 C22.597212,5.08045977 22.1863536,4.95238095 21.8576669,5.03776683 L19.5568599,5.72085386 L20.2142333,3.33004926 C20.296405,2.94581281 20.1731475,2.56157635 19.8444607,2.3908046 L17.7490829,1.11001642 C17.4203962,0.939244663 17.0095378,0.981937603 16.7630227,1.23809524 L15.1195891,3.03119869 L14.5443874,0.640394089 C14.4622157,0.256157635 14.133529,0 13.7637564,0 L11.298606,0 C10.9288335,0 10.6001467,0.256157635 10.5179751,0.640394089 L9.94277329,3.03119869 L8.29933969,1.23809524 C8.05282465,0.981937603 7.64196625,0.896551724 7.31327953,1.11001642 L5.21790169,2.3908046 C4.88921497,2.56157635 4.76595745,2.98850575 4.84812913,3.33004926 L5.50550257,5.72085386 L3.20469552,5.03776683 C2.83492296,4.95238095 2.4651504,5.08045977 2.30080704,5.42200328 L1.06823184,7.59934319 C0.903888481,7.9408867 0.944974321,8.36781609 1.19148936,8.62397373 L2.91709464,10.3316913 L0.616287601,10.9293924 C0.24651504,11.0147783 0,11.3563218 0,11.7405583 L0,14.2594417 C0,14.6436782 0.24651504,14.9852217 0.616287601,15.0706076 L2.91709464,15.6683087 L1.19148936,17.3760263 C0.944974321,17.6321839 0.862802641,18.0591133 1.06823184,18.4006568 L2.30080704,20.5779967 C2.4651504,20.9195402 2.8760088,21.047619 3.20469552,20.9622332 L5.50550257,20.2791461 L4.84812913,22.6699507 C4.76595745,23.0541872 4.88921497,23.4384236 5.21790169,23.6091954 L7.31327953,24.8899836 C7.64196625,25.0607553 8.05282465,25.0180624 8.29933969,24.7619048 L9.94277329,22.9688013 L10.5179751,25.3596059 C10.6001467,25.7438424 10.9288335,26 11.298606,26 L13.7637564,26 C14.133529,26 14.4622157,25.7438424 14.5443874,25.3596059 L15.1195891,22.9688013 L16.7630227,24.7619048 C17.0095378,25.0180624 17.4203962,25.1034483 17.7490829,24.8899836 L19.8444607,23.6091954 C20.1731475,23.4384236 20.296405,23.0114943 20.2142333,22.6699507 L19.5568599,20.2791461 L21.8576669,20.9622332 C22.2274395,21.047619 22.597212,20.9195402 22.7615554,20.5779967 L23.9941306,18.4006568 C24.158474,18.0591133 24.1173881,17.6321839 23.8708731,17.3760263 L22.1452678,15.6683087 L24.4460748,15.0706076 C24.8158474,14.9852217 25.0623624,14.6436782 25.0623624,14.2594417 L25.0623624,11.7405583 Z" id="Path" fill="#FF7300"></path>
                    <path d="M5.50550257,5.72085386 L5.50550257,5.72085386 L19.5979457,20.364532 L19.5979457,20.364532 L21.8987528,21.047619 C22.2685253,21.1330049 22.6382979,21.0049261 22.8026412,20.6633826 L24.0352164,18.4860427 C24.1995598,18.1444992 24.158474,17.7175698 23.9119589,17.4614122 L22.1863536,15.7536946 L24.4871607,15.1559934 C24.8569332,15.0706076 25.1034483,14.729064 25.1034483,14.3448276 L25.1034483,11.8259442 C25.1034483,11.4417077 24.8569332,11.1001642 24.4871607,11.0147783 L22.1863536,10.4170772 L23.9119589,8.70935961 C24.158474,8.45320197 24.2406456,8.02627258 24.0352164,7.68472906 L22.8026412,5.50738916 C22.6382979,5.16584565 22.2274395,5.03776683 21.8987528,5.12315271 L19.5979457,5.80623974 L20.2553191,3.41543514 C20.3374908,3.03119869 20.2142333,2.64696223 19.8855466,2.47619048 L17.7901687,1.1954023 C17.461482,1.02463054 17.0506236,1.06732348 16.8041086,1.32348112 L15.160675,3.11658456 L14.5443874,0.640394089 C14.4622157,0.256157635 14.133529,0 13.7637564,0 L11.298606,0 C10.9288335,0 10.6001467,0.256157635 10.5179751,0.640394089 L9.94277329,3.03119869 L8.29933969,1.23809524 C8.05282465,0.981937603 7.64196625,0.896551724 7.31327953,1.11001642 L5.21790169,2.3908046 C4.88921497,2.56157635 4.76595745,2.98850575 4.84812913,3.33004926 L5.50550257,5.72085386 Z" id="Path" fill="#FF3C00"></path>
                    <path d="M9.24431401,15.7536946 L6.49156273,10.7159278 L5.58767425,16.2233169 L14.5033015,25.4876847 C14.5033015,25.4449918 14.5033015,25.4449918 14.5443874,25.4022989 L15.1195891,23.0114943 L16.7630227,24.8045977 C17.0095378,25.0607553 17.4203962,25.1461412 17.7490829,24.9326765 L19.8444607,23.6518883 C20.1731475,23.4811166 20.296405,23.0541872 20.2142333,22.7126437 L19.5568599,20.3218391 L21.8576669,21.0049261 C22.1863536,21.090312 22.5561262,20.9622332 22.7615554,20.6206897 L11.5451211,10.545156 L9.24431401,15.7536946 Z" id="Path" fill="#FF3C00"></path>
                </g>
                <path d="M17.1701136,16.3041324 L17.1701136,11.6303857 C17.4501883,11.6099636 17.6908775,11.5997526 17.8921812,11.5997526 C18.6332122,11.5997526 19.0037277,11.9367174 19.0037277,12.6106472 L19.0037277,12.6106472 L19.0037277,16.3041324 L20.3428349,16.3041324 L20.3428349,12.6150234 C20.3428349,12.3845452 20.3326239,12.1854296 20.3122018,12.0176765 C20.2917796,11.8499235 20.2523941,11.6843585 20.1940452,11.5209815 C20.1356963,11.3576046 20.0532785,11.2212141 19.9467918,11.1118099 C19.8403051,11.0024057 19.7039145,10.9054007 19.5376201,10.8207948 C19.3713258,10.7361889 19.1656459,10.6734638 18.9205806,10.6326196 C18.6755152,10.5917754 18.3721009,10.5713532 18.0103378,10.5713532 C17.6485746,10.5713532 17.2481553,10.591046 16.8090798,10.6304315 C16.3700044,10.669817 16.0439799,10.7128493 15.8310064,10.7595284 L15.8310064,10.7595284 L15.8310064,16.3041324 L17.1701136,16.3041324 Z M14.3617588,16.3041324 L14.3617588,12.7988224 C14.3617588,12.5595919 14.3894745,12.3655818 14.444906,12.2167921 C14.5003374,12.0680025 14.6009893,11.9396349 14.7468615,11.8316894 C14.881064,11.7412486 15.0094315,11.6726887 15.1319642,11.6260096 L15.1319642,11.6260096 L15.1319642,10.6588766 L10.6201357,10.6588766 L10.6201357,11.6785236 L13.687829,11.6785236 L13.687829,11.7091567 L13.6178103,11.7354137 C13.5098649,11.776258 13.3902496,11.8725337 13.2589646,12.0242408 C13.1947808,12.0971769 13.1400787,12.1992875 13.0948583,12.3305725 C13.0496379,12.4618575 13.0270277,12.6077298 13.0270277,12.7681892 L13.0270277,12.7681892 L13.0270277,16.3041324 L14.3617588,16.3041324 Z M7.09408943,16.3041324 C8.50613275,16.3041324 9.41199938,15.6666707 9.81168933,14.3917473 C9.9137999,14.0708284 9.98819474,13.6448814 10.0348739,13.1139064 L10.0348739,13.1139064 L10.2449299,10.6588766 L8.96708904,10.6588766 L8.75703301,13.1489158 C8.70160155,13.8140932 8.54260081,14.3363158 8.28003077,14.7155837 C8.01746073,15.0948515 7.64256907,15.2844854 7.15535577,15.2844854 L7.15535577,15.2844854 L5.72872523,15.2844854 L5.65433039,14.3917473 C5.7593584,14.3975822 5.84250558,14.4004996 5.90377192,14.4004996 C7.00948353,14.4004996 7.60755973,13.8272217 7.69800052,12.6806659 L7.69800052,12.6806659 L7.85991871,10.6588766 L6.59083019,10.6588766 L6.42453583,12.6937944 C6.40119627,12.979704 6.33336568,13.1839251 6.22104405,13.3064578 C6.10872243,13.4289905 5.93732254,13.4902568 5.70684439,13.4902568 C5.65433039,13.4902568 5.61056871,13.4887981 5.57555938,13.4858807 L5.57555938,13.4858807 L5.33924634,10.6588766 L4.06140549,10.6588766 L4.53840772,16.3041324 L7.09408943,16.3041324 Z" id="חדש" fill="#FFFFFF"></path>
            </g>
        </g>
    </g>
</svg>