<?xml version="1.0" standalone="no"?>
<svg version="1.0" xmlns="http://www.w3.org/2000/svg"
 width="200.000000pt" height="200.000000pt" viewBox="0 0 200.000000 200.000000"
 preserveAspectRatio="xMidYMid meet">
<metadata>
Created by potrace 1.16, written by Peter Selinger 2001-2019
</metadata>
<g transform="translate(0.000000,200.000000) scale(0.100000,-0.100000)"
fill="#004FA1" stroke="none">
<path d="M800 1986 c-306 -64 -563 -263 -700 -541 -79 -159 -95 -236 -95 -445
0 -209 16 -286 95 -446 138 -279 402 -481 708 -540 95 -18 289 -18 384 0 400
77 717 394 794 794 18 95 18 289 0 384 -71 370 -359 681 -721 779 -102 27
-364 36 -465 15z m340 -77 c105 -17 244 -68 332 -122 156 -96 307 -268 372
-424 58 -138 71 -207 70 -368 -1 -133 -4 -160 -28 -239 -51 -168 -132 -301
-252 -417 -116 -110 -231 -177 -390 -225 -79 -24 -106 -27 -239 -28 -127 -1
-162 3 -228 22 -182 52 -317 132 -438 260 -201 209 -293 496 -248 772 16 101
65 237 117 325 64 108 219 263 327 327 84 50 225 102 316 117 76 12 213 13
289 0z"/>
<path d="M817 1332 c-187 -187 -202 -211 -151 -234 24 -11 31 -6 160 123 l134
134 0 -437 c0 -428 0 -437 20 -443 11 -3 29 -3 40 0 20 6 20 15 20 443 l0 437
134 -134 c129 -129 136 -134 160 -123 52 23 36 47 -152 235 -97 97 -179 177
-182 177 -3 0 -85 -80 -183 -178z"/>
</g>
</svg>
